<?xml version="1.0" encoding="UTF-8" standalone="no"?>
<!-- Created with Inkscape (http://www.inkscape.org/) -->

<svg
   version="1.1"
   id="svg1"
   width="712"
   height="165.06686"
   viewBox="0 0 712 165.06686"
   sodipodi:docname="finallogo.svg"
   inkscape:export-filename="ag.svg"
   inkscape:export-xdpi="187.5"
   inkscape:export-ydpi="187.5"
   inkscape:version="1.4.4 (dcaf3e7, 2026-05-05)"
   xmlns:inkscape="http://www.inkscape.org/namespaces/inkscape"
   xmlns:sodipodi="http://sodipodi.sourceforge.net/DTD/sodipodi-0.dtd"
   xmlns="http://www.w3.org/2000/svg"
   xmlns:svg="http://www.w3.org/2000/svg">
  <defs
     id="defs1" />
  <sodipodi:namedview
     id="namedview1"
     pagecolor="#505050"
     bordercolor="#eeeeee"
     borderopacity="1"
     inkscape:showpageshadow="0"
     inkscape:pageopacity="0"
     inkscape:pagecheckerboard="0"
     inkscape:deskcolor="#505050"
     inkscape:zoom="0.56278518"
     inkscape:cx="879.55407"
     inkscape:cy="512.62899"
     inkscape:window-width="1920"
     inkscape:window-height="1017"
     inkscape:window-x="-8"
     inkscape:window-y="-8"
     inkscape:window-maximized="1"
     inkscape:current-layer="g1">
    <inkscape:page
       x="0"
       y="0"
       width="712"
       height="165.06686"
       id="page2"
       margin="0"
       bleed="0" />
  </sodipodi:namedview>
  <g
     inkscape:groupmode="layer"
     inkscape:label="svg"
     id="g1"
     style="display:inline;opacity:1"
     transform="translate(-391.69315,-425.28166)">
    <path
       style="display:inline;opacity:1;fill:#0b1f4d;fill-opacity:1"
       d="m 394.14765,587.82711 -2.4545,-2.45454 v -35.6905 -35.69049 l 7.2288,0.60604 c 5.4608,0.45782 9.0682,1.50267 14.74996,4.27224 6.9143,3.3704 9.7073,5.86357 34.6162,30.90029 26.4565,26.59218 27.1105,27.34671 27.75,32.01237 1.3007,9.48952 5.8908,8.49914 -39.3905,8.49914 h -40.04536 z m 90.79326,-13.76227 c 0.39297,-13.21554 0.8826,-17.38549 2.5991,-22.13428 6.0523,-16.74416 18.3519,-28.20508 36.7224,-34.21855 8.489,-2.7788 9.7963,-2.92357 26.4307,-2.92687 l 17.5,-0.003 v 35.71504 c 0,32.94618 -0.1384,35.85343 -1.7848,37.5 -1.6439,1.64399 -4.9503,1.80732 -41.8682,2.06814 l -40.0834,0.28318 z m -34.4978,-34.17421 c -13.6125,-13.8007 -24.75,-25.2706 -24.75,-25.48867 0,-0.21807 2.8765,-0.10178 6.3923,0.25842 24.0252,2.46146 41.4518,19.39318 43.4531,42.21926 0.4052,4.62111 0.4932,8.33478 0.1956,8.2526 -0.2975,-0.0822 -11.6785,-11.44091 -25.291,-25.24161 z m 274.5371,3.31466 c -6.4023,-0.85497 -11.0664,-3.47243 -14.0337,-7.87558 -3.3637,-4.99143 -2.9774,-6.04805 2.2114,-6.04805 3.4336,0 4.7108,0.45953 5.5296,1.98965 3.7398,6.98786 18.6855,6.48212 22.3585,-0.75658 1.6146,-3.18194 2.7541,-13.23307 1.5003,-13.23307 -0.4693,0 -0.8532,0.43103 -0.8532,0.95784 0,0.52682 -1.9521,2.10182 -4.3379,3.5 -6.8613,4.02103 -17.1653,3.01405 -22.9819,-2.24598 -6.2286,-5.63254 -8.231,-19.74433 -3.9499,-27.83607 5.9876,-11.31727 20.02139,-14.92814 29.2366,-7.52259 l 3.9088,3.1412 -0.1878,-2.7472 c -0.17767,-2.59897 0.068,-2.76361 4.5621,-3.05199 l 4.75,-0.3048 -0.01,21.8048 c 0,12.64276 -0.4647,23.48552 -1.0982,25.80479 -3.0196,11.05459 -12.6692,16.28518 -26.6091,14.42363 z m 12.815,-29.21019 c 6.5101,-4.3809 7.5676,-15.69401 2.0447,-21.87521 -5.3167,-5.9504 -15.8411,-4.66775 -20.1873,2.46032 -3.8213,6.26714 -1.5759,17.61645 4.0405,20.42279 4.023,2.01018 10.2819,1.56284 14.1021,-1.0079 z m 36.3979,9.85453 c -13.9908,-3.86682 -19.2247,-23.95409 -9.3598,-35.92192 6.2582,-7.59224 16.92,-9.69374 26.5149,-5.22624 6.4091,2.98413 10.20621,8.83595 11.0522,17.03303 l 0.5725,5.54716 h -17.1399 c -9.427,0 -17.1399,0.23945 -17.1399,0.53212 0,2.05692 3.2285,7.50245 5.5137,9.29998 4.0758,3.20605 12.2981,3.03857 16.3039,-0.3321 2.1224,-1.78583 4.154,-2.5 7.1119,-2.5 3.9713,0 4.0933,0.0921 2.9807,2.25 -1.6743,3.2472 -5.028,6.74106 -7.9113,8.24195 -4.0263,2.09595 -12.934,2.61408 -18.4989,1.07602 z m 18.693,-27.10054 c -1.4741,-9.44862 -16.2468,-12.34726 -21.2349,-4.16661 -3.8577,6.32693 -3.3576,6.65276 9.7919,6.37882 11.0545,-0.23029 11.7318,-0.36123 11.443,-2.21221 z m 74.68014,27.82819 c -1.4449,-0.22259 -3.6949,-1.54006 -5,-2.9277 -2.2276,-2.36824 -2.4038,-3.45362 -2.8731,-17.69546 l -0.5,-15.17246 -3,-0.5 c -1.8695,-0.31158 -2.9493,-1.06525 -2.8654,-2 0.074,-0.825 0.1866,-2.2875 0.25,-3.25 0.082,-1.25215 0.9689,-1.75 3.1154,-1.75 h 3 v -7.40218 -7.40217 l 3.1492,-1.09783 c 5.7376,-2.00015 5.8508,-1.85701 5.8508,7.40218 v 8.5 h 5.9289 5.9289 l -0.1789,3.49551 -0.1789,3.49552 -5.75,0.004 -5.75,0.004 v 12.5 c 0,11.3887 0.1878,12.68781 2.1126,14.61257 1.6208,1.62082 2.901,1.98462 5.5,1.56287 3.3528,-0.5441 3.3874,-0.51088 3.3874,3.25659 0,3.62151 -0.1821,3.83637 -3.75,4.42612 -2.0625,0.34091 -4.2,0.55736 -4.75,0.48101 -0.55,-0.0764 -2.1821,-0.32095 -3.6269,-0.54354 z m 98.40183,-0.21239 c -9.0446,-2.30085 -15.08746,-9.92347 -16.02006,-20.20824 -1.5926,-17.56399 17.09016,-29.48719 33.43876,-21.34034 7.2263,3.601 10.6067,8.9566 11.1242,17.62404 0.6398,10.71651 -2.876,17.78969 -10.8696,21.86772 -4.395,2.24213 -13.0056,3.24423 -17.6733,2.05682 z m 12.4207,-9.03923 c 4.7692,-2.90795 6.7369,-6.55948 6.7067,-12.44552 -0.05,-9.76489 -5.5303,-15.29503 -14.1898,-14.31898 -12.6852,1.42981 -16.08586,19.94911 -4.9141,26.76098 4.0688,2.48089 8.3321,2.4821 12.3972,0.004 z m 65.71702,9.01321 c -7.2483,-1.73281 -8.4127,-4.85053 -8.4127,-22.52509 v -13.53212 h -3 c -2.7619,0 -3,-0.27778 -3,-3.5 0,-3.22223 0.2381,-3.5 3,-3.5 h 3 v -7.34172 -7.34171 l 3.866,-1.15829 c 2.1264,-0.63709 4.1514,-1.15828 4.5,-1.15828 0.3487,0 0.634,3.825 0.634,8.5 v 8.5 h 6.2992 6.2992 l -0.4086,3.5 -0.4086,3.5 h -5.9934 -5.9934 l 0.3528,12.39572 c 0.3039,10.67936 0.629,12.70077 2.3473,14.59888 1.5918,1.75833 2.7527,2.10145 5.75,1.69943 l 3.7555,-0.50372 v 3.77984 c 0,3.43343 -0.2864,3.83713 -3.125,4.40485 -3.6705,0.7341 -5.2897,0.67971 -9.4623,-0.31779 z m -427.41269,-0.52542 c 0,-0.315 4.0964,-11.47602 9.1032,-24.80226 5.0067,-13.32624 10.4184,-27.81876 12.026,-32.20559 1.6076,-4.38683 3.3312,-8.38433 3.8302,-8.88333 0.499,-0.499 3.2998,-0.9112 6.2239,-0.91615 l 5.3167,-0.009 8.2783,21.8922 c 4.55307,12.04072 10.25272,27.20101 12.6658,33.68959 l 4.3874,11.79739 -5.6657,-0.29739 -5.6658,-0.29739 -2.5659,-7.5 -2.5658,-7.5 h -14.7949 -14.7949 l -2.7089,7.5 -2.7089,7.5 -5.1803,0.30226 c -2.8492,0.16625 -5.1804,0.0445 -5.1804,-0.27047 z m 41.716,-25.82938 c -0.2738,-0.71367 -2.649,-7.35117 -5.2781,-14.75 -2.6291,-7.39882 -5.0888,-13.8155 -5.4659,-14.25928 -0.3772,-0.44378 -2.1713,3.38122 -3.9869,8.5 -1.8156,5.11878 -4.33485,12.11939 -5.5983,15.55687 l -2.2972,6.25 h 11.5622 c 9.065,0 11.4546,-0.28025 11.0642,-1.29759 z m 24.284,4.79759 v -21.5 h 4.6094 4.6094 l -0.4086,3.5 c -0.44584,3.81897 0.6603,4.7437 1.7117,1.431 0.8455,-2.66409 6.1933,-5.92246 9.7281,-5.92726 2.5858,-0.004 2.75,0.26015 2.75,4.4168 0,4.17705 -0.179,4.4591 -3.25,5.12044 -5.4444,1.17246 -8.479,3.24277 -9.6416,6.57786 -0.6096,1.74878 -1.1084,8.73745 -1.1084,15.53038 v 12.35078 h -4.5 -4.5 z m 126,0 v -21.5 h 4.50004 c 4.392,0 4.5,0.0765 4.5,3.18709 v 3.18709 l 2.75,-2.62347 c 7.8599,-7.49826 21.0395,-6.04133 25.6995,2.84091 1.7945,3.42041 2.0739,5.93723 2.2381,20.15838 l 0.1876,16.25 h -4.9376 -4.9376 v -15.07693 -15.07692 l -3.0483,-3.04827 c -2.6831,-2.68308 -3.5404,-2.98226 -7.1566,-2.49723 -2.7761,0.37235 -5.1115,1.5533 -7.2017,3.6416 l -3.0934,3.09055 -0.3238,14.4836 -0.3238,14.4836 h -4.4262 -4.42624 z m 79.00004,-11.83334 c 0,-18.33333 0.186,-33.52083 0.4134,-33.75 0.2274,-0.22916 3.0399,-0.26662 6.24996,-0.0832 5.8196,0.33245 5.8487,0.34991 9.9836,6 2.2809,3.11662 9.4809,12.93683 16,21.8227 6.51911,8.88586 12.30301,16.90935 12.85301,17.82996 0.6797,1.13776 0.8941,-5.87819 0.6694,-21.90612 l -0.3306,-23.57996 h 5.0806 5.0806 v 33.5 33.5 h -3.3775 c -3.5718,0 -3.9328,-0.45526 -37.62591,-47.47251 l -4.9966,-6.97252 v 27.22252 27.22251 h -5 -4.99996 z m 112.99995,11.83334 v -21.5 h 4.4425 4.4425 l 0.3075,4.25 0.3075,4.25 1.706,-3.11516 c 1.7701,-3.23227 7.0509,-6.38484 10.6952,-6.38484 1.782,0 2.0988,0.60385 2.0988,4 0,2.2 0.1125,4.3375 0.25,4.75 0.1375,0.4125 -1.55,1.00008 -3.75,1.30573 -9.1924,1.27713 -10.9603,4.76857 -10.9833,21.69117 l -0.017,12.24689 -4.75,0.003 -4.75,0.003 z m 63.9993,-12.25 -8e-4,-33.75 4.5992,0.12065 4.5992,0.12066 -0.1454,15.34784 -0.1455,15.34784 2.297,-2.10153 c 8.4307,-7.71331 21.4683,-6.8852 25.9622,1.64894 1.5683,2.97815 1.8348,5.92025 1.8348,20.25 v 16.7656 h -4.5 -4.5 v -14.94424 c 0,-14.35583 -0.095,-15.05471 -2.4134,-17.75 -1.9802,-2.30217 -3.2222,-2.80576 -6.9194,-2.80576 -8.8691,0 -11.6672,5.86207 -11.6672,24.44282 v 11.05718 h -4.5 -4.5 z M 391.69315,468.57099 c 0,-36.94923 0.058,-38.0938 2.0726,-40.65447 l 2.0725,-2.63486 h 40.42746 40.4274 v 4.27623 c 0,2.35193 -0.4658,8.08943 -1.0351,12.75 -2.4878,20.36734 -7.4414,31.51189 -19.3285,43.48528 -13.3029,13.39945 -27.7068,19.00068 -51.88636,20.1771 l -12.75,0.62033 z m 150.99996,36.7308 c -27.1804,-3.54644 -47.4786,-20.89818 -55.0237,-47.03647 -1.4746,-5.10836 -2.33185,-11.5305 -2.701,-20.23366 l -0.5408,-12.75 h 39.522 c 37.416,0 39.6477,0.10181 41.8827,1.91072 l 2.3608,1.91072 0.2945,38.58928 0.2945,38.58928 -10.2945,-0.13112 c -5.662,-0.0721 -12.7695,-0.45405 -15.7945,-0.84875 z"
       id="path1"
       sodipodi:nodetypes="ccccsssssccsssccssscssssssscsscssssssscssccsccssssssssscsssssssssssscsscsscscccsscccccccssssssccsssssscsssccsscssscccssscccccccssscssscsssscsscccccccccsccssssscssccccsscssssccccccsscssscccccsssccccccssssssscccccsscccccsccccccssssscccccccccccssscccssssccccsccccsssscsssscsscccss" />
  </g>
</svg>
